<svg width="515" height="209" viewBox="0 0 515 209" fill="none" xmlns="http://www.w3.org/2000/svg">
<path fill-rule="evenodd" clip-rule="evenodd" d="M1 1H138.068L206.294 41H514V208H1V42V41V1Z" fill="white"/>
<path d="M138.068 1L138.32 0.568665L138.203 0.5H138.068V1ZM1 1V0.5H0.5V1H1ZM206.294 41L206.041 41.4313L206.159 41.5H206.294V41ZM514 41H514.5V40.5H514V41ZM514 208V208.5H514.5V208H514ZM1 208H0.5V208.5H1V208ZM138.068 0.5H1V1.5H138.068V0.5ZM206.547 40.5687L138.32 0.568665L137.815 1.43134L206.041 41.4313L206.547 40.5687ZM206.294 41.5H514V40.5H206.294V41.5ZM513.5 41V208H514.5V41H513.5ZM514 207.5H1V208.5H514V207.5ZM1.5 208V42H0.5V208H1.5ZM1.5 42V41H0.5V42H1.5ZM0.5 1V41H1.5V1H0.5Z" fill="#E7E7E7"/>
</svg>
